<svg xmlns="http://www.w3.org/2000/svg" xmlns:xlink="http://www.w3.org/1999/xlink" viewBox="12250.318 2358.111 128.683 51.457">
  <defs>
    <style>
      .cls-1 {
        fill: none;
      }

      .cls-2 {
        clip-path: url(#clip-path);
      }

      .cls-3 {
        fill: url(#linear-gradient);
      }

      .cls-4 {
        clip-path: url(#clip-path-2);
      }

      .cls-5 {
        fill: url(#linear-gradient-2);
      }

      .cls-6 {
        clip-path: url(#clip-path-3);
      }

      .cls-7 {
        fill: url(#linear-gradient-3);
      }

      .cls-8 {
        clip-path: url(#clip-path-4);
      }

      .cls-9 {
        fill: url(#linear-gradient-4);
      }

      .cls-10 {
        clip-path: url(#clip-path-5);
      }

      .cls-11 {
        fill: url(#linear-gradient-5);
      }

      .cls-12 {
        clip-path: url(#clip-path-6);
      }

      .cls-13 {
        fill: url(#linear-gradient-6);
      }

      .cls-14 {
        clip-path: url(#clip-path-7);
      }

      .cls-15 {
        fill: url(#linear-gradient-7);
      }

      .cls-16 {
        clip-path: url(#clip-path-8);
      }

      .cls-17 {
        fill: url(#linear-gradient-8);
      }

      .cls-18 {
        clip-path: url(#clip-path-9);
      }

      .cls-19 {
        fill: url(#linear-gradient-9);
      }

      .cls-20 {
        clip-path: url(#clip-path-10);
      }

      .cls-21 {
        fill: url(#linear-gradient-10);
      }

      .cls-22 {
        clip-path: url(#clip-path-11);
      }

      .cls-23 {
        fill: url(#linear-gradient-11);
      }

      .cls-24 {
        clip-path: url(#clip-path-12);
      }

      .cls-25 {
        fill: url(#linear-gradient-12);
      }
    </style>
    <clipPath id="clip-path">
      <path id="Path_25" data-name="Path 25" class="cls-1" d="M550.766,161.779c-3.834,1.243-7.679,3.257-9.572,6.98a17.417,17.417,0,0,0-1.242,3.458,9.948,9.948,0,0,0,.883,7.444,10.662,10.662,0,0,0,5.489,4.651c6.377,2.534,15.975.324,19-6.44.757-1.692,1.11-5.057.162-6.751-1.365-2.641-5.562-4.3-8.915-4.109-3.471.154-6.914,1.524-8.839,3.869-1.945,2.269-1.96,5.28-.235,7.093a7.436,7.436,0,0,0,5.631,2.083,8.3,8.3,0,0,0,6.251-2.738,3.589,3.589,0,0,0-.146-5.041,5.127,5.127,0,0,0-5.421-.52c-1.639.648-2.61,2.5-1.537,3.576-.258-1.344,1.135-2.117,2.158-2.177a2.013,2.013,0,0,1,2.141.755c.387.953-.76,2.5-3.333,2.571a2.768,2.768,0,0,1-2.068-.707,2.266,2.266,0,0,1,.264-3.018c.887-1.167,2.971-2.046,5.119-2.148s4.1.723,4.808,2.107c1.394,2.739-.347,5.482-2.594,7.067a10.552,10.552,0,0,1-8.518,1.807,8.762,8.762,0,0,1-2.918-1.08,6.353,6.353,0,0,1-2.383-2.431,7.024,7.024,0,0,1-.609-5.289c.6-2.269,1.427-4.341,3.388-5.742a17.112,17.112,0,0,1,14.847-2.029c2.483.955,4.69,3.025,7.184,3.77-.81-3.454-4.42-6.518-7.687-7.4a18.494,18.494,0,0,0-4.824-.616,21.234,21.234,0,0,0-6.484,1.018" transform="translate(-539.597 -160.769)"/>
    </clipPath>
    <linearGradient id="linear-gradient" x1="-2.271" y1="1.607" x2="-2.267" y2="1.607" gradientUnits="objectBoundingBox">
      <stop offset="0" stop-color="#eb5c28"/>
      <stop offset="1" stop-color="#f8ad3c"/>
    </linearGradient>
    <clipPath id="clip-path-2">
      <path id="Path_26" data-name="Path 26" class="cls-1" d="M503.962,95.175c-2.629,1.24,1.276,6.114,2.226,7.26,2.527,3.038,4.331,5.748,5.173,5.249s-.425-3.488-2.107-7.058a18.686,18.686,0,0,0-2.67-4.61A2.67,2.67,0,0,0,504.72,95a1.734,1.734,0,0,0-.752.177" transform="translate(-503.066 -95)"/>
    </clipPath>
    <linearGradient id="linear-gradient-2" x1="-4.82" y1="3.827" x2="-4.811" y2="3.827" gradientUnits="objectBoundingBox">
      <stop offset="0" stop-color="#cfe0a2"/>
      <stop offset="0.5" stop-color="#a8cd7a"/>
      <stop offset="1" stop-color="#76b342"/>
    </linearGradient>
    <clipPath id="clip-path-3">
      <path id="Path_28" data-name="Path 28" class="cls-1" d="M550.26,41.54c-1.621.021-1.945,2.154-1.918,3.391a21.076,21.076,0,0,0,1.4,6.285c1.692,4.722,2.671,8.744,3.877,8.517s.973-4.352.486-9.345a39.081,39.081,0,0,0-.882-5.461,7.949,7.949,0,0,0-.378-1.18c-.464-1.135-1.263-2.206-2.569-2.206Z" transform="translate(-548.34 -41.54)"/>
    </clipPath>
    <linearGradient id="linear-gradient-3" x1="-3.814" y1="3.045" x2="-3.806" y2="3.045" gradientUnits="objectBoundingBox">
      <stop offset="0" stop-color="#f9e29e"/>
      <stop offset="0.06" stop-color="#f9e094"/>
      <stop offset="0.17" stop-color="#fadb7a"/>
      <stop offset="0.31" stop-color="#fbd250"/>
      <stop offset="0.48" stop-color="#fdc716"/>
      <stop offset="0.5" stop-color="#fdc50d"/>
      <stop offset="1" stop-color="#f4a81c"/>
    </linearGradient>
    <clipPath id="clip-path-4">
      <path id="Path_30" data-name="Path 30" class="cls-1" d="M648.726,40.369c-1.008,2.671-1.773,5.479-2.535,8.225-.2.721-.956,2.725.041,3.182,1.119.517,3.32-2.971,5.836-7.319.587-1.02,1.146-2.057,1.653-3.119a17.194,17.194,0,0,0,1.193-3.012c.376-1.459.342-2.918-1.086-3.458a2.071,2.071,0,0,0-.741-.139c-2.279,0-3.764,4.052-4.359,5.638" transform="translate(-645.729 -34.73)"/>
    </clipPath>
    <linearGradient id="linear-gradient-4" x1="-8.446" y1="3.837" x2="-8.433" y2="3.837" gradientUnits="objectBoundingBox">
      <stop offset="0" stop-color="#cf74a9"/>
      <stop offset="0.26" stop-color="#c84b97"/>
      <stop offset="0.5" stop-color="#c02184"/>
      <stop offset="1" stop-color="#962b87"/>
    </linearGradient>
    <clipPath id="clip-path-5">
      <path id="Path_32" data-name="Path 32" class="cls-1" d="M718.289,197.14c-1.106.762-6.7,3.791-5.8,5.605.558,1.11,3.581.217,7.181-1.062a49.987,49.987,0,0,0,5.925-3.009c-.684-2.065-2.015-2.9-3.545-2.9a6.9,6.9,0,0,0-3.764,1.371" transform="translate(-712.394 -195.77)"/>
    </clipPath>
    <linearGradient id="linear-gradient-5" x1="-5.639" y1="2.191" x2="-5.631" y2="2.191" gradientUnits="objectBoundingBox">
      <stop offset="0" stop-color="#f29054"/>
      <stop offset="0.5" stop-color="#ee7724"/>
      <stop offset="1" stop-color="#d06329"/>
    </linearGradient>
    <clipPath id="clip-path-6">
      <path id="Path_34" data-name="Path 34" class="cls-1" d="M606.73,11.515c-3.2.334-2.918,6.523-2.934,8.635-.016,2.795.23,5.589.452,8.371.062.783-.066,5.025,1.282,5.124,1.3.086,2.2-4.761,3.08-10.7.238-1.608.418-3.221.522-4.844a20.13,20.13,0,0,0,.075-3.242,5.4,5.4,0,0,0-.3-1.334c-.316-.841-1-2.026-2.036-2.026h-.141" transform="translate(-603.795 -11.5)"/>
    </clipPath>
    <linearGradient id="linear-gradient-6" x1="-6.1" y1="2.992" x2="-6.09" y2="2.992" gradientUnits="objectBoundingBox">
      <stop offset="0" stop-color="#35beed"/>
      <stop offset="0.5" stop-color="#31a7df"/>
      <stop offset="1" stop-color="#2190ce"/>
    </linearGradient>
    <clipPath id="clip-path-7">
      <path id="Path_35" data-name="Path 35" class="cls-1" d="M5.626,130.082c0-1.8.572-3.208,2.331-3.208s2.328,1.405,2.328,3.208v1.978H5.626ZM0,132.631V137.6c0,6.064.88,9.974,8.176,9.974,4.351,0,7.294-2.594,7.294-6.9,0-2.107-1.135-2.639-2.726-2.639-1.493,0-2.547.53-2.636,2.858a2.376,2.376,0,0,1-2.064,2.462c-2.2,0-2.419-2.242-2.419-5.1v-2.414h7.032c2.725,0,2.987-1.671,2.987-3.824,0-6.241-1.888-9.361-7.469-9.361-7.3,0-8.176,3.907-8.176,9.971" transform="translate(0 -122.66)"/>
    </clipPath>
    <linearGradient id="linear-gradient-7" x1="-0.363" y1="2.32" x2="-0.352" y2="2.32" gradientUnits="objectBoundingBox">
      <stop offset="0" stop-color="#a8cd7a"/>
      <stop offset="1" stop-color="#76b342"/>
    </linearGradient>
    <clipPath id="clip-path-8">
      <path id="Path_36" data-name="Path 36" class="cls-1" d="M89.735,96.2V93.085c0-5.228.486-6.678,2.286-6.678,1.276,0,2.637.973,2.637,5.756v4.482c0,3.385-.571,5.8-2.681,5.8-1.976,0-2.242-2.286-2.242-6.244m4.921-18.9v7.427h-.088a5.266,5.266,0,0,0-4.746-2.77c-4.834,0-5.712,4.394-5.712,9.275v6.372c0,4.879.879,9.27,5.712,9.27a5.054,5.054,0,0,0,4.746-2.767h.088a2.63,2.63,0,0,0,2.681,2.767c1.621,0,2.681-1.01,2.681-3.206V77.308c0-2.2-1.055-3.208-2.681-3.208s-2.681,1.011-2.681,3.208" transform="translate(-84.11 -74.1)"/>
    </clipPath>
    <linearGradient id="linear-gradient-8" x1="-1.213" y1="2.003" x2="-1.203" y2="2.003" gradientUnits="objectBoundingBox">
      <stop offset="0" stop-color="#fdc50d"/>
      <stop offset="1" stop-color="#f4a81c"/>
    </linearGradient>
    <clipPath id="clip-path-9">
      <path id="Path_37" data-name="Path 37" class="cls-1" d="M180.8,125.84v12.788c0,2.989-.924,4.263-2.812,4.263-1.321,0-2.065-.746-2.065-2.506V125.84c0-2.2-1.057-3.21-2.683-3.21s-2.681,1.013-2.681,3.21v15.816c0,4.041,2.154,5.886,5.142,5.886a5.276,5.276,0,0,0,5.009-3.08h.089c0,2.065,1.054,3.08,2.679,3.08s2.681-1.01,2.681-3.206v-18.5c0-2.2-1.055-3.21-2.681-3.21s-2.679,1.013-2.679,3.21" transform="translate(-170.56 -122.63)"/>
    </clipPath>
    <linearGradient id="linear-gradient-9" x1="-2.136" y1="2.32" x2="-2.125" y2="2.32" gradientUnits="objectBoundingBox">
      <stop offset="0" stop-color="#31a7df"/>
      <stop offset="1" stop-color="#2190ce"/>
    </linearGradient>
    <clipPath id="clip-path-10">
      <path id="Path_38" data-name="Path 38" class="cls-1" d="M428.916,137.52v-4.7c0-4.788,1.362-5.761,2.637-5.761,1.8,0,2.29,1.459,2.29,6.682v3.341c0,3.955-.263,6.242-2.243,6.242-2.107,0-2.68-2.417-2.68-5.8m.089-11.689h-.089c0-2.2-1.054-3.21-2.679-3.21s-2.681,1.013-2.681,3.21v27.023c0,2.2,1.055,3.208,2.681,3.208s2.679-1.01,2.679-3.208v-8h.089a5.138,5.138,0,0,0,4.746,2.679c4.834,0,5.714-4.393,5.714-9.27V131.9c0-4.879-.879-9.275-5.714-9.275a5.315,5.315,0,0,0-4.746,3.21" transform="translate(-423.56 -122.62)"/>
    </clipPath>
    <linearGradient id="linear-gradient-10" x1="-4.672" y1="1.729" x2="-4.662" y2="1.729" gradientUnits="objectBoundingBox">
      <stop offset="0" stop-color="#be292e"/>
      <stop offset="0.68" stop-color="#d72529"/>
      <stop offset="1" stop-color="#e52327"/>
    </linearGradient>
    <clipPath id="clip-path-11">
      <path id="Path_39" data-name="Path 39" class="cls-1" d="M342.536,140.512c0-2.023.439-2.858,2.812-4.529l1.89-1.318v4.215c0,2.506-1.057,4.44-2.814,4.44-1.135,0-1.888-1.013-1.888-2.812m-5.361-11.561c0,1.621,1.621,2.2,2.812,2.2,1.405,0,2.415-.66,2.548-1.713.22-1.89.791-2.814,2.636-2.814a2.118,2.118,0,0,1,2.067,2.371,2.763,2.763,0,0,1-1.715,2.5l-4.79,2.511c-2.811,1.495-3.824,3.566-3.824,7.161,0,4.482,2.373,6.37,5.541,6.37a5.093,5.093,0,0,0,4.878-2.987l.088-.042c0,2.328,1.362,3.03,2.812,3.03,1.712,0,2.679-.7,2.679-2.107,0-.747-.308-2.021-.308-3.566V129.652c0-3.868-.789-7.032-7.956-7.032-4.13,0-7.47,2.2-7.47,6.322" transform="translate(-336.91 -122.62)"/>
    </clipPath>
    <linearGradient id="linear-gradient-11" x1="-3.768" y1="2.32" x2="-3.758" y2="2.32" xlink:href="#linear-gradient"/>
    <clipPath id="clip-path-12">
      <path id="Path_40" data-name="Path 40" class="cls-1" d="M257.67,132.912v4.352c0,5.712.7,10.282,7.865,10.282,6.322,0,7.427-5.006,7.427-7.384,0-1.976-1.055-3.119-2.639-3.119-1.712,0-2.594.835-2.723,3.868-.044,1.89-1.012,2.417-2.021,2.417-1.715,0-2.284-1.67-2.284-5.626v-5.27c0-3.164.131-5.583,2.284-5.583a2.018,2.018,0,0,1,2.021,2.286c0,2.2.922,3.033,2.723,3.033,1.5,0,2.639-.926,2.639-3.033,0-2.153-1.274-6.505-7.427-6.505-7.161,0-7.865,4.571-7.865,10.284" transform="translate(-257.67 -122.63)"/>
    </clipPath>
    <linearGradient id="linear-gradient-12" x1="-3.102" y1="2.32" x2="-3.091" y2="2.32" gradientUnits="objectBoundingBox">
      <stop offset="0" stop-color="#c02184"/>
      <stop offset="1" stop-color="#962b87"/>
    </linearGradient>
  </defs>
  <g id="educap" transform="translate(12250.318 2338.611)">
    <g id="Layer_1" data-name="Layer 1" transform="translate(0 19.5)">
      <g id="Group_11" data-name="Group 11" class="cls-2" transform="translate(87.468 24.196)">
        <path id="Path_24" data-name="Path 24" class="cls-3" d="M511.32,138.7l4.98,29.846,34.015-5.015-4.98-29.846Z" transform="translate(-515.904 -138.071)"/>
      </g>
      <g id="Group_12" data-name="Group 12" class="cls-4" transform="translate(81.546 13.535)">
        <rect id="Rectangle_173" data-name="Rectangle 173" class="cls-5" width="17.09" height="16.74" transform="translate(-8.174 7.994) rotate(-51.14)"/>
      </g>
      <g id="Group_13" data-name="Group 13" class="cls-6" transform="translate(88.885 4.869)">
        <path id="Path_27" data-name="Path 27" class="cls-7" d="M498.31,31.393l9.83,16.388,12.838-7.875L511.15,23.52Z" transform="translate(-506.42 -26.441)"/>
      </g>
      <g id="Group_14" data-name="Group 14" class="cls-8" transform="translate(104.672 3.766)">
        <path id="Path_29" data-name="Path 29" class="cls-9" d="M635.519,30.42,634.07,48.585l11.391.8,1.451-18.165Z" transform="translate(-635.96 -31.119)"/>
      </g>
      <g id="Group_15" data-name="Group 15" class="cls-10" transform="translate(115.478 29.87)">
        <path id="Path_31" data-name="Path 31" class="cls-11" d="M696.425,144.27l-9.765,12.739,10.979,12.039,9.766-12.739Z" transform="translate(-690.832 -152.618)"/>
      </g>
      <g id="Group_16" data-name="Group 16" class="cls-12" transform="translate(97.874)">
        <path id="Path_33" data-name="Path 33" class="cls-13" d="M570.4,3.683l5.622,22.282,10.467-3.683L580.868,0Z" transform="translate(-575.813 -1.864)"/>
      </g>
      <g id="Group_17" data-name="Group 17" class="cls-14" transform="translate(0 18.019)">
        <rect id="Rectangle_174" data-name="Rectangle 174" class="cls-15" width="15.646" height="24.918" transform="translate(0 -0.005)"/>
      </g>
      <g id="Group_18" data-name="Group 18" class="cls-16" transform="translate(13.634 10.147)">
        <rect id="Rectangle_175" data-name="Rectangle 175" class="cls-17" width="15.91" height="32.783" transform="translate(0 0.002)"/>
      </g>
      <g id="Group_19" data-name="Group 19" class="cls-18" transform="translate(27.648 18.014)">
        <rect id="Rectangle_176" data-name="Rectangle 176" class="cls-19" width="15.602" height="24.918" transform="translate(0 0)"/>
      </g>
      <g id="Group_20" data-name="Group 20" class="cls-20" transform="translate(68.658 18.012)">
        <rect id="Rectangle_177" data-name="Rectangle 177" class="cls-21" width="15.908" height="33.443" transform="translate(-0.005 0.002)"/>
      </g>
      <g id="Group_21" data-name="Group 21" class="cls-22" transform="translate(54.613 18.012)">
        <rect id="Rectangle_178" data-name="Rectangle 178" class="cls-23" width="15.997" height="24.918" transform="translate(-0.002 0.002)"/>
      </g>
      <g id="Group_22" data-name="Group 22" class="cls-24" transform="translate(41.768 18.014)">
        <rect id="Rectangle_179" data-name="Rectangle 179" class="cls-25" width="15.294" height="24.918" transform="translate(0 0)"/>
      </g>
    </g>
  </g>
</svg>
